<?xml version="1.0" encoding="UTF-8"?>
<svg id="Calque_2" data-name="Calque 2" xmlns="http://www.w3.org/2000/svg" xmlns:xlink="http://www.w3.org/1999/xlink" viewBox="0 0 214.25 48.04">
  <defs>
    <style>
      .cls-1 {
        fill: none;
      }

      .cls-2 {
        fill: #1d1d1b;
      }

      .cls-3 {
        clip-path: url(#clippath-1);
      }

      .cls-4 {
        clip-path: url(#clippath);
      }
    </style>
    <clipPath id="clippath">
      <rect class="cls-1" width="214.25" height="48.04"/>
    </clipPath>
    <clipPath id="clippath-1">
      <rect class="cls-1" y="0" width="214.25" height="48.04"/>
    </clipPath>
  </defs>
  <g id="Calque_1-2" data-name="Calque 1">
    <g class="cls-4">
      <polygon class="cls-2" points="1.88 1.76 1.88 8.46 15.9 8.46 .87 40.23 .87 46.49 24.24 46.49 24.24 39.67 9.27 39.67 24.24 7.89 24.24 1.76 1.88 1.76"/>
      <rect class="cls-2" x="31.07" y="1.76" width="7.58" height="44.72"/>
      <polygon class="cls-2" points="67.33 46.49 54.63 14.9 54.44 14.9 54.56 46.49 47.74 46.49 47.74 1.76 56.4 1.76 68.97 33.54 69.16 33.54 69.09 1.76 75.66 1.76 75.66 46.49 67.33 46.49"/>
      <polygon class="cls-2" points="84.76 46.49 84.76 1.76 104.78 1.76 104.78 8.46 92.03 8.46 92.03 20.33 103.84 20.33 103.84 26.53 92.03 26.53 92.03 39.73 105.42 39.73 105.42 46.49 84.76 46.49"/>
      <polygon class="cls-2" points="119.88 19.49 119.88 20.84 131.38 20.84 131.38 27.28 119.95 27.28 119.95 46.49 112.3 46.49 112.3 1.76 132.33 1.76 132.33 8.59 119.88 8.59 119.88 19.49"/>
      <polygon class="cls-2" points="138.64 46.49 138.64 1.76 158.67 1.76 158.67 8.46 145.91 8.46 145.91 20.33 157.72 20.33 157.72 26.53 145.91 26.53 145.91 39.73 159.3 39.73 159.3 46.49 138.64 46.49"/>
      <g class="cls-3">
        <path class="cls-2" d="M183.75,10.42c-1.64-1.98-3.71-2.97-6.19-2.97-.72,0-1.41.12-2.08.35-.68.23-1.29.6-1.83,1.11-.55.51-.98,1.16-1.29,1.96-.32.8-.47,1.75-.47,2.84,0,1.89.57,3.36,1.71,4.39,1.14,1.03,2.63,2.01,4.49,2.94,1.09.55,2.21,1.18,3.35,1.9,1.14.72,2.17,1.58,3.1,2.59.93,1.01,1.68,2.21,2.27,3.6.59,1.39.88,3.03.88,4.93,0,2.19-.35,4.13-1.04,5.81-.69,1.68-1.62,3.11-2.78,4.26-1.16,1.16-2.52,2.03-4.07,2.62-1.56.59-3.2.88-4.93.88-2.49,0-4.78-.49-6.89-1.45-2.11-.97-3.79-2.19-5.05-3.66l4.1-5.56c.97,1.18,2.14,2.11,3.51,2.78,1.37.67,2.77,1.01,4.2,1.01,1.6,0,2.93-.55,3.98-1.64,1.05-1.1,1.58-2.63,1.58-4.61s-.63-3.48-1.89-4.61c-1.26-1.14-2.87-2.19-4.8-3.16-1.22-.59-2.37-1.24-3.44-1.96-1.07-.72-2.02-1.57-2.84-2.56-.82-.99-1.48-2.15-1.96-3.47-.49-1.33-.73-2.91-.73-4.77,0-2.32.37-4.31,1.11-5.97.74-1.66,1.71-3.04,2.9-4.14,1.2-1.1,2.56-1.91,4.08-2.43,1.52-.53,3.05-.79,4.61-.79,2.27,0,4.3.37,6.1,1.11,1.79.74,3.29,1.82,4.52,3.25l-4.17,5.43Z"/>
        <polygon class="cls-2" points="205.35 8.21 205.35 46.49 197.9 46.49 197.9 8.21 189.5 8.21 189.5 1.76 213.75 1.76 213.75 8.21 205.35 8.21"/>
      </g>
    </g>
  </g>
</svg>